<?xml version="1.0" encoding="UTF-8" standalone="no"?>
<!DOCTYPE svg PUBLIC "-//W3C//DTD SVG 20010904//EN"
              "http://www.w3.org/TR/2001/REC-SVG-20010904/DTD/svg10.dtd">

<svg xmlns="http://www.w3.org/2000/svg"
     viewBox="0 0 221 400">
  <path id="Selection"
        fill="#0DF2C1" stroke="black" stroke-width="1"
        d="M 95.00,0.21
           C 95.00,0.21 118.00,0.21 118.00,0.21
             129.75,0.02 146.69,3.06 158.00,6.44
             167.04,9.14 176.12,13.54 184.00,18.70
             233.20,50.89 226.49,124.81 203.40,171.00
             197.51,182.77 195.21,184.88 187.67,195.00
             179.57,205.85 177.02,218.70 177.00,232.00
             176.99,241.04 179.27,255.04 168.00,258.28
             165.22,259.08 161.88,259.00 159.00,258.89
             159.00,258.89 61.00,258.89 61.00,258.89
             58.84,259.00 56.09,259.05 54.00,258.89
             43.13,256.71 44.10,248.53 44.00,240.00
             44.00,240.00 43.09,230.00 43.09,230.00
             42.45,220.71 42.72,213.91 38.69,205.00
             33.86,194.31 22.61,185.11 14.43,166.00
             7.51,149.84 0.03,125.57 0.00,108.00
             0.00,108.00 0.00,87.00 0.00,87.00
             0.28,63.35 10.72,40.99 28.00,25.09
             33.87,19.70 40.91,15.77 48.00,12.25
             64.57,4.02 77.32,2.94 95.00,0.21 Z
           M 133.00,252.00
           C 133.00,252.00 161.00,252.00 161.00,252.00
             163.90,251.98 167.11,252.27 169.07,249.69
             171.77,246.12 170.99,233.79 171.00,229.00
             171.01,220.06 172.80,208.03 176.81,200.00
             182.20,189.21 190.55,184.54 200.14,163.00
             206.16,149.49 213.92,124.64 214.00,110.00
             214.00,110.00 214.82,95.00 214.82,95.00
             212.56,63.29 205.97,39.56 177.00,21.81
             169.85,17.43 161.13,13.73 153.00,11.63
             134.04,6.73 122.45,5.78 103.00,6.00
             91.93,6.13 74.57,9.22 64.00,12.67
             54.10,15.90 44.29,20.26 36.00,26.68
             16.30,41.93 6.04,66.38 6.00,91.00
             6.00,91.00 6.00,102.00 6.00,102.00
             6.03,120.04 11.80,144.61 19.31,161.00
             23.25,169.60 27.43,177.42 33.13,185.00
             33.13,185.00 41.29,196.00 41.29,196.00
             49.55,209.10 49.80,227.92 50.00,243.00
             50.11,250.80 51.36,251.95 59.00,252.00
             59.00,252.00 88.00,252.00 88.00,252.00
             88.00,252.00 88.00,228.00 88.00,228.00
             88.12,218.01 91.53,216.65 91.66,212.00
             91.77,208.10 89.17,206.40 89.08,201.00
             89.01,196.90 90.50,194.09 89.68,189.00
             87.64,176.43 73.53,144.83 68.00,132.00
             68.00,132.00 55.58,104.00 55.58,104.00
             54.54,101.62 51.15,95.95 53.63,93.74
             55.77,91.83 60.78,96.12 63.01,97.21
             71.44,101.36 78.81,102.00 88.00,102.00
             88.00,102.00 85.00,92.00 85.00,92.00
             88.84,94.38 89.16,97.05 91.00,101.00
             91.00,101.00 110.00,93.82 110.00,93.82
             110.00,93.82 130.00,101.00 130.00,101.00
             131.52,96.67 131.86,94.42 136.00,92.00
             136.00,92.00 133.00,101.00 133.00,101.00
             140.59,102.82 151.02,100.59 158.00,97.21
             160.17,96.16 165.39,91.89 167.40,93.74
             169.74,95.90 166.75,101.68 165.69,104.00
             165.69,104.00 153.15,132.00 153.15,132.00
             145.17,150.58 140.10,161.29 133.98,181.00
             133.98,181.00 131.34,190.00 131.34,190.00
             131.34,190.00 131.86,203.00 131.86,203.00
             131.32,207.12 129.24,208.74 129.41,212.00
             129.66,216.71 132.98,216.12 133.00,229.00
             133.00,229.00 133.00,252.00 133.00,252.00 Z
           M 147.06,27.74
           C 157.25,25.22 170.04,31.35 176.67,39.04
             179.07,41.82 185.09,53.63 178.70,55.18
             175.30,56.00 169.51,49.54 167.00,47.44
             162.45,43.63 159.38,41.74 154.00,39.31
             151.72,38.28 146.06,36.49 144.58,35.01
             141.59,32.01 144.46,29.32 147.06,27.74 Z
           M 129.00,103.00
           C 129.00,103.00 110.00,96.14 110.00,96.14
             110.00,96.14 92.00,103.00 92.00,103.00
             92.00,103.00 99.68,125.00 99.68,125.00
             100.44,127.05 102.90,134.13 104.08,135.43
             106.02,137.54 113.25,137.53 115.50,135.98
             117.78,134.41 119.43,128.64 120.42,126.00
             120.42,126.00 129.00,103.00 129.00,103.00 Z
           M 61.00,99.00
           C 61.00,99.00 65.75,112.00 65.75,112.00
             65.75,112.00 72.77,128.00 72.77,128.00
             72.77,128.00 88.56,165.00 88.56,165.00
             88.56,165.00 95.00,184.00 95.00,184.00
             95.00,184.00 100.43,178.63 100.43,178.63
             100.43,178.63 101.00,167.00 101.00,167.00
             101.00,167.00 101.00,142.00 101.00,142.00
             96.03,140.59 96.18,138.51 101.00,137.00
             101.00,137.00 92.58,114.00 92.58,114.00
             92.58,114.00 88.30,104.99 88.30,104.99
             88.30,104.99 79.00,103.71 79.00,103.71
             79.00,103.71 61.00,99.00 61.00,99.00 Z
           M 161.00,99.00
           C 149.30,101.67 144.97,105.32 132.00,103.00
             132.00,103.00 120.00,137.00 120.00,137.00
             123.33,139.02 123.33,139.98 120.00,142.00
             120.00,142.00 120.00,180.00 120.00,180.00
             120.00,180.00 127.00,184.00 127.00,184.00
             132.83,158.17 150.76,124.59 161.00,99.00 Z
           M 114.00,142.00
           C 114.00,142.00 107.00,142.00 107.00,142.00
             107.00,142.00 107.00,179.00 107.00,179.00
             107.00,179.00 114.00,179.00 114.00,179.00
             114.00,179.00 114.00,142.00 114.00,142.00 Z
           M 123.00,206.00
           C 128.13,200.80 125.26,190.93 119.67,186.74
             116.62,184.44 105.58,184.22 102.32,186.17
             99.30,187.99 96.92,192.69 96.05,196.00
             95.06,199.80 94.66,201.77 97.00,205.00
             97.86,187.79 115.67,185.87 121.56,197.02
             123.23,200.19 123.13,202.58 123.00,206.00 Z
           M 109.01,196.48
           C 100.70,199.74 102.37,207.91 109.01,208.85
             119.40,210.32 119.79,196.19 109.01,196.48 Z
           M 102.00,252.00
           C 102.00,252.00 102.00,228.00 102.00,228.00
             102.00,228.00 102.61,218.22 102.61,218.22
             102.61,218.22 98.00,215.00 98.00,215.00
             98.00,215.00 94.68,223.00 94.68,223.00
             94.68,223.00 94.00,252.00 94.00,252.00
             94.00,252.00 102.00,252.00 102.00,252.00 Z
           M 123.00,215.00
           C 123.00,215.00 118.00,217.00 118.00,217.00
             118.00,217.00 120.00,237.00 120.00,237.00
             120.00,237.00 119.00,252.00 119.00,252.00
             119.00,252.00 127.00,252.00 127.00,252.00
             127.00,252.00 126.43,222.00 126.43,222.00
             126.43,222.00 123.00,215.00 123.00,215.00 Z
           M 113.00,222.00
           C 107.13,223.03 108.01,225.74 108.00,231.00
             108.00,231.00 108.00,252.00 108.00,252.00
             108.00,252.00 113.04,252.00 113.04,252.00
             113.04,252.00 113.04,239.00 113.04,239.00
             113.04,239.00 113.82,232.00 113.82,232.00
             113.82,232.00 113.00,222.00 113.00,222.00 Z
           M 65.00,277.00
           C 61.17,277.00 53.23,277.67 50.31,275.26
             47.45,272.90 45.00,263.18 58.00,263.00
             58.00,263.00 143.00,263.00 143.00,263.00
             147.84,263.00 163.32,261.97 166.57,264.74
             168.79,266.63 168.83,269.05 168.84,271.72
             168.86,275.19 169.62,279.92 166.69,282.40
             163.93,284.73 161.91,282.88 156.00,286.00
             158.86,286.00 163.38,285.71 165.85,287.17
             169.84,289.53 169.84,295.47 165.85,297.83
             162.57,299.77 157.05,298.28 151.00,300.00
             154.94,300.00 163.37,299.85 166.57,302.16
             169.54,304.30 169.59,309.70 166.57,311.83
             164.33,313.41 155.54,313.98 152.00,315.00
             155.46,315.00 163.05,314.51 165.85,316.17
             169.84,318.53 169.84,324.47 165.85,326.83
             163.39,328.28 158.35,327.77 154.00,329.00
             157.33,329.00 162.99,328.66 165.85,330.31
             169.54,332.43 169.83,337.75 166.69,340.40
             164.40,342.34 160.85,341.57 155.00,344.00
             158.39,344.00 163.98,343.51 166.63,345.74
             170.08,348.53 169.89,359.44 166.63,362.26
             164.16,364.31 159.99,364.00 157.00,364.00
             157.00,364.00 73.00,364.00 73.00,364.00
             66.64,364.00 45.95,366.99 48.33,356.02
             49.92,348.74 58.19,352.22 66.00,350.00
             62.04,350.00 53.50,350.32 50.37,348.02
             47.34,345.86 47.41,340.27 50.37,338.17
             50.37,338.17 64.00,335.00 64.00,335.00
             60.67,335.00 53.88,335.44 51.15,333.83
             47.16,331.47 47.16,325.53 51.15,323.17
             54.58,321.14 60.66,322.80 67.00,321.00
             61.32,321.00 46.18,322.91 48.33,313.02
             49.65,306.96 54.97,309.18 61.00,306.00
             58.30,306.00 53.42,306.33 51.15,304.98
             47.19,302.64 47.14,296.54 51.15,294.17
             54.43,292.23 59.95,293.72 66.00,292.00
             62.32,292.00 53.35,292.10 50.43,289.99
             47.46,287.85 47.41,282.29 50.43,280.17
             52.67,278.59 61.46,278.02 65.00,277.00 Z
           M 131.00,273.00
           C 131.00,273.00 119.00,272.09 119.00,272.09
             119.00,272.09 96.00,270.91 96.00,270.91
             96.00,270.91 72.00,269.01 72.00,269.01
             72.00,269.01 57.02,268.07 57.02,268.07
             55.46,268.17 51.61,268.99 53.17,271.46
             54.20,273.09 57.32,272.94 59.00,273.08
             59.00,273.08 72.00,274.01 72.00,274.01
             72.00,274.01 81.00,275.00 81.00,275.00
             81.00,275.00 89.00,275.00 89.00,275.00
             89.00,275.00 97.00,275.92 97.00,275.92
             97.00,275.92 118.00,274.28 118.00,274.28
             122.35,273.77 126.90,274.63 131.00,273.00 Z
           M 128.00,287.00
           C 128.00,287.00 52.00,283.00 52.00,283.00
             52.27,284.54 52.18,285.73 53.57,286.83
             55.42,288.27 65.73,288.14 69.00,288.58
             69.00,288.58 80.00,289.13 80.00,289.13
             91.63,289.88 101.31,290.28 113.00,289.13
             118.68,288.63 122.80,290.02 128.00,287.00 Z
           M 134.00,302.00
           C 134.00,302.00 71.00,298.09 71.00,298.09
             71.00,298.09 56.06,297.23 56.06,297.23
             54.48,297.38 51.89,298.42 53.17,300.46
             54.03,301.83 56.56,302.03 58.00,302.27
             58.00,302.27 72.00,303.23 72.00,303.23
             89.97,304.88 102.92,305.42 121.00,303.23
             125.35,302.77 129.90,303.63 134.00,302.00 Z
           M 128.00,317.00
           C 128.00,317.00 99.00,314.91 99.00,314.91
             99.00,314.91 71.00,312.99 71.00,312.99
             71.00,312.99 57.02,312.06 57.02,312.06
             55.47,312.19 51.60,312.98 53.17,315.46
             54.09,316.91 56.50,316.91 58.00,316.98
             58.00,316.98 72.00,318.00 72.00,318.00
             72.00,318.00 85.00,318.96 85.00,318.96
             95.92,319.44 105.13,319.20 116.00,318.17
             120.28,317.76 123.94,318.61 128.00,317.00 Z
           M 131.00,331.00
           C 131.00,331.00 119.00,330.09 119.00,330.09
             119.00,330.09 96.00,328.91 96.00,328.91
             96.00,328.91 72.00,327.01 72.00,327.01
             72.00,327.01 57.02,326.07 57.02,326.07
             55.46,326.17 51.61,326.99 53.17,329.46
             54.20,331.09 57.32,330.94 59.00,331.08
             59.00,331.08 72.00,332.04 72.00,332.04
             72.00,332.04 80.00,333.00 80.00,333.00
             80.00,333.00 88.00,333.00 88.00,333.00
             88.00,333.00 97.00,333.97 97.00,333.97
             97.00,333.97 118.00,332.28 118.00,332.28
             122.35,331.77 126.90,332.63 131.00,331.00 Z
           M 127.00,345.00
           C 127.00,345.00 52.00,341.00 52.00,341.00
             52.27,342.54 52.18,343.73 53.57,344.83
             55.42,346.27 65.73,346.14 69.00,346.58
             69.00,346.58 79.00,347.13 79.00,347.13
             90.78,347.89 101.18,348.29 113.00,347.13
             118.37,346.66 122.26,348.07 127.00,345.00 Z
           M 96.00,357.00
           C 96.00,357.00 52.00,355.00 52.00,355.00
             52.90,360.23 55.17,359.93 60.00,360.00
             60.00,360.00 96.00,359.00 96.00,359.00
             96.00,359.00 96.00,357.00 96.00,357.00 Z
           M 55.00,368.00
           C 55.00,368.00 162.00,368.00 162.00,368.00
             160.82,378.17 147.51,386.74 138.00,388.53
             138.00,388.53 127.09,389.60 127.09,389.60
             122.08,391.58 120.66,399.40 110.00,399.96
             105.01,400.22 101.25,399.48 97.30,396.21
             94.33,393.76 92.85,390.33 88.96,389.31
             88.96,389.31 78.00,388.32 78.00,388.32
             68.79,386.21 56.15,377.93 55.00,368.00 Z
           M 118.00,389.00
           C 118.00,389.00 99.00,389.00 99.00,389.00
             103.51,396.98 113.20,396.47 118.00,389.00 Z" />
</svg>
