<?xml version="1.0" encoding="UTF-8" standalone="no"?>
<!DOCTYPE svg PUBLIC "-//W3C//DTD SVG 20010904//EN"
              "http://www.w3.org/TR/2001/REC-SVG-20010904/DTD/svg10.dtd">

<svg xmlns="http://www.w3.org/2000/svg"
     viewBox="0 0 400 400">
  <path id="Selection"
        fill="#0DF2C1" stroke="black" stroke-width="1"
        d="M 184.00,0.21
           C 184.00,0.21 207.00,0.21 207.00,0.21
             218.75,0.02 235.69,3.06 247.00,6.44
             256.04,9.14 265.12,13.54 273.00,18.70
             322.20,50.89 315.49,124.81 292.40,171.00
             286.51,182.77 284.21,184.88 276.67,195.00
             268.57,205.85 266.02,218.70 266.00,232.00
             265.99,241.04 268.27,255.04 257.00,258.28
             254.22,259.08 250.88,259.00 248.00,258.89
             248.00,258.89 150.00,258.89 150.00,258.89
             147.84,259.00 145.09,259.05 143.00,258.89
             132.13,256.71 133.10,248.53 133.00,240.00
             133.00,240.00 132.09,230.00 132.09,230.00
             131.45,220.71 131.72,213.91 127.69,205.00
             122.86,194.31 111.61,185.11 103.43,166.00
             96.51,149.84 89.03,125.57 89.00,108.00
             89.00,108.00 89.00,87.00 89.00,87.00
             89.28,63.35 99.72,40.99 117.00,25.09
             122.87,19.70 129.91,15.77 137.00,12.25
             153.57,4.02 166.32,2.94 184.00,0.21 Z
           M 222.00,252.00
           C 222.00,252.00 250.00,252.00 250.00,252.00
             252.90,251.98 256.11,252.27 258.07,249.69
             260.77,246.12 259.99,233.79 260.00,229.00
             260.01,220.06 261.80,208.03 265.81,200.00
             271.20,189.21 279.55,184.54 289.14,163.00
             295.16,149.49 302.92,124.64 303.00,110.00
             303.00,110.00 303.82,95.00 303.82,95.00
             301.56,63.29 294.97,39.56 266.00,21.81
             258.85,17.43 250.13,13.73 242.00,11.63
             223.04,6.73 211.45,5.78 192.00,6.00
             180.93,6.13 163.57,9.22 153.00,12.67
             143.10,15.90 133.29,20.26 125.00,26.68
             105.30,41.93 95.04,66.38 95.00,91.00
             95.00,91.00 95.00,102.00 95.00,102.00
             95.03,120.04 100.80,144.61 108.31,161.00
             112.25,169.60 116.43,177.42 122.13,185.00
             122.13,185.00 130.29,196.00 130.29,196.00
             138.55,209.10 138.80,227.92 139.00,243.00
             139.11,250.80 140.36,251.95 148.00,252.00
             148.00,252.00 177.00,252.00 177.00,252.00
             177.00,252.00 177.00,228.00 177.00,228.00
             177.12,218.01 180.53,216.65 180.66,212.00
             180.77,208.10 178.17,206.40 178.08,201.00
             178.01,196.90 179.50,194.09 178.68,189.00
             176.64,176.43 162.53,144.83 157.00,132.00
             157.00,132.00 144.58,104.00 144.58,104.00
             143.54,101.62 140.15,95.95 142.63,93.74
             144.77,91.83 149.78,96.12 152.01,97.21
             160.44,101.36 167.81,102.00 177.00,102.00
             177.00,102.00 174.00,92.00 174.00,92.00
             177.84,94.38 178.16,97.05 180.00,101.00
             180.00,101.00 199.00,93.82 199.00,93.82
             199.00,93.82 219.00,101.00 219.00,101.00
             220.52,96.67 220.86,94.42 225.00,92.00
             225.00,92.00 222.00,101.00 222.00,101.00
             229.59,102.82 240.02,100.59 247.00,97.21
             249.17,96.16 254.39,91.89 256.40,93.74
             258.74,95.90 255.75,101.68 254.69,104.00
             254.69,104.00 242.15,132.00 242.15,132.00
             234.17,150.58 229.10,161.29 222.98,181.00
             222.98,181.00 220.34,190.00 220.34,190.00
             220.34,190.00 220.86,203.00 220.86,203.00
             220.32,207.12 218.24,208.74 218.41,212.00
             218.66,216.71 221.98,216.12 222.00,229.00
             222.00,229.00 222.00,252.00 222.00,252.00 Z
           M 236.06,27.74
           C 246.25,25.22 259.04,31.35 265.67,39.04
             268.07,41.82 274.09,53.63 267.70,55.18
             264.30,56.00 258.51,49.54 256.00,47.44
             251.45,43.63 248.38,41.74 243.00,39.31
             240.72,38.28 235.06,36.49 233.58,35.01
             230.59,32.01 233.46,29.32 236.06,27.74 Z
           M 218.00,103.00
           C 218.00,103.00 199.00,96.14 199.00,96.14
             199.00,96.14 181.00,103.00 181.00,103.00
             181.00,103.00 188.68,125.00 188.68,125.00
             189.44,127.05 191.90,134.13 193.08,135.43
             195.02,137.54 202.25,137.53 204.50,135.98
             206.78,134.41 208.43,128.64 209.42,126.00
             209.42,126.00 218.00,103.00 218.00,103.00 Z
           M 150.00,99.00
           C 150.00,99.00 154.75,112.00 154.75,112.00
             154.75,112.00 161.77,128.00 161.77,128.00
             161.77,128.00 177.56,165.00 177.56,165.00
             177.56,165.00 184.00,184.00 184.00,184.00
             184.00,184.00 189.43,178.63 189.43,178.63
             189.43,178.63 190.00,167.00 190.00,167.00
             190.00,167.00 190.00,142.00 190.00,142.00
             185.03,140.59 185.18,138.51 190.00,137.00
             190.00,137.00 181.58,114.00 181.58,114.00
             181.58,114.00 177.30,104.99 177.30,104.99
             177.30,104.99 168.00,103.71 168.00,103.71
             168.00,103.71 150.00,99.00 150.00,99.00 Z
           M 250.00,99.00
           C 238.30,101.67 233.97,105.32 221.00,103.00
             221.00,103.00 209.00,137.00 209.00,137.00
             212.33,139.02 212.33,139.98 209.00,142.00
             209.00,142.00 209.00,180.00 209.00,180.00
             209.00,180.00 216.00,184.00 216.00,184.00
             221.83,158.17 239.76,124.59 250.00,99.00 Z
           M 203.00,142.00
           C 203.00,142.00 196.00,142.00 196.00,142.00
             196.00,142.00 196.00,179.00 196.00,179.00
             196.00,179.00 203.00,179.00 203.00,179.00
             203.00,179.00 203.00,142.00 203.00,142.00 Z
           M 212.00,206.00
           C 217.13,200.80 214.26,190.93 208.67,186.74
             205.62,184.44 194.58,184.22 191.32,186.17
             188.30,187.99 185.92,192.69 185.05,196.00
             184.06,199.80 183.66,201.77 186.00,205.00
             186.86,187.79 204.67,185.87 210.56,197.02
             212.23,200.19 212.13,202.58 212.00,206.00 Z
           M 198.01,196.48
           C 189.70,199.74 191.37,207.91 198.01,208.85
             208.40,210.32 208.79,196.19 198.01,196.48 Z
           M 191.00,252.00
           C 191.00,252.00 191.00,228.00 191.00,228.00
             191.00,228.00 191.61,218.22 191.61,218.22
             191.61,218.22 187.00,215.00 187.00,215.00
             187.00,215.00 183.68,223.00 183.68,223.00
             183.68,223.00 183.00,252.00 183.00,252.00
             183.00,252.00 191.00,252.00 191.00,252.00 Z
           M 212.00,215.00
           C 212.00,215.00 207.00,217.00 207.00,217.00
             207.00,217.00 209.00,237.00 209.00,237.00
             209.00,237.00 208.00,252.00 208.00,252.00
             208.00,252.00 216.00,252.00 216.00,252.00
             216.00,252.00 215.43,222.00 215.43,222.00
             215.43,222.00 212.00,215.00 212.00,215.00 Z
           M 202.00,222.00
           C 196.13,223.03 197.01,225.74 197.00,231.00
             197.00,231.00 197.00,252.00 197.00,252.00
             197.00,252.00 202.04,252.00 202.04,252.00
             202.04,252.00 202.04,239.00 202.04,239.00
             202.04,239.00 202.82,232.00 202.82,232.00
             202.82,232.00 202.00,222.00 202.00,222.00 Z
           M 154.00,277.00
           C 150.17,277.00 142.23,277.67 139.31,275.26
             136.45,272.90 134.00,263.18 147.00,263.00
             147.00,263.00 232.00,263.00 232.00,263.00
             236.84,263.00 252.32,261.97 255.57,264.74
             257.79,266.63 257.83,269.05 257.84,271.72
             257.86,275.19 258.62,279.92 255.69,282.40
             252.93,284.73 250.91,282.88 245.00,286.00
             247.86,286.00 252.38,285.71 254.85,287.17
             258.84,289.53 258.84,295.47 254.85,297.83
             251.57,299.77 246.05,298.28 240.00,300.00
             243.94,300.00 252.37,299.85 255.57,302.16
             258.54,304.30 258.59,309.70 255.57,311.83
             253.33,313.41 244.54,313.98 241.00,315.00
             244.46,315.00 252.05,314.51 254.85,316.17
             258.84,318.53 258.84,324.47 254.85,326.83
             252.39,328.28 247.35,327.77 243.00,329.00
             246.33,329.00 251.99,328.66 254.85,330.31
             258.54,332.43 258.83,337.75 255.69,340.40
             253.40,342.34 249.85,341.57 244.00,344.00
             247.39,344.00 252.98,343.51 255.63,345.74
             259.08,348.53 258.89,359.44 255.63,362.26
             253.16,364.31 248.99,364.00 246.00,364.00
             246.00,364.00 162.00,364.00 162.00,364.00
             155.64,364.00 134.95,366.99 137.33,356.02
             138.92,348.74 147.19,352.22 155.00,350.00
             151.04,350.00 142.50,350.32 139.37,348.02
             136.34,345.86 136.41,340.27 139.37,338.17
             139.37,338.17 153.00,335.00 153.00,335.00
             149.67,335.00 142.88,335.44 140.15,333.83
             136.16,331.47 136.16,325.53 140.15,323.17
             143.58,321.14 149.66,322.80 156.00,321.00
             150.32,321.00 135.18,322.91 137.33,313.02
             138.65,306.96 143.97,309.18 150.00,306.00
             147.30,306.00 142.42,306.33 140.15,304.98
             136.19,302.64 136.14,296.54 140.15,294.17
             143.43,292.23 148.95,293.72 155.00,292.00
             151.32,292.00 142.35,292.10 139.43,289.99
             136.46,287.85 136.41,282.29 139.43,280.17
             141.67,278.59 150.46,278.02 154.00,277.00 Z
           M 220.00,273.00
           C 220.00,273.00 208.00,272.09 208.00,272.09
             208.00,272.09 185.00,270.91 185.00,270.91
             185.00,270.91 161.00,269.01 161.00,269.01
             161.00,269.01 146.02,268.07 146.02,268.07
             144.46,268.17 140.61,268.99 142.17,271.46
             143.20,273.09 146.32,272.94 148.00,273.08
             148.00,273.08 161.00,274.01 161.00,274.01
             161.00,274.01 170.00,275.00 170.00,275.00
             170.00,275.00 178.00,275.00 178.00,275.00
             178.00,275.00 186.00,275.92 186.00,275.92
             186.00,275.92 207.00,274.28 207.00,274.28
             211.35,273.77 215.90,274.63 220.00,273.00 Z
           M 217.00,287.00
           C 217.00,287.00 141.00,283.00 141.00,283.00
             141.27,284.54 141.18,285.73 142.57,286.83
             144.42,288.27 154.73,288.14 158.00,288.58
             158.00,288.58 169.00,289.13 169.00,289.13
             180.63,289.88 190.31,290.28 202.00,289.13
             207.68,288.63 211.80,290.02 217.00,287.00 Z
           M 223.00,302.00
           C 223.00,302.00 160.00,298.09 160.00,298.09
             160.00,298.09 145.06,297.23 145.06,297.23
             143.48,297.38 140.89,298.42 142.17,300.46
             143.03,301.83 145.56,302.03 147.00,302.27
             147.00,302.27 161.00,303.23 161.00,303.23
             178.97,304.88 191.92,305.42 210.00,303.23
             214.35,302.77 218.90,303.63 223.00,302.00 Z
           M 217.00,317.00
           C 217.00,317.00 188.00,314.91 188.00,314.91
             188.00,314.91 160.00,312.99 160.00,312.99
             160.00,312.99 146.02,312.06 146.02,312.06
             144.47,312.19 140.60,312.98 142.17,315.46
             143.09,316.91 145.50,316.91 147.00,316.98
             147.00,316.98 161.00,318.00 161.00,318.00
             161.00,318.00 174.00,318.96 174.00,318.96
             184.92,319.44 194.13,319.20 205.00,318.17
             209.28,317.76 212.94,318.61 217.00,317.00 Z
           M 220.00,331.00
           C 220.00,331.00 208.00,330.09 208.00,330.09
             208.00,330.09 185.00,328.91 185.00,328.91
             185.00,328.91 161.00,327.01 161.00,327.01
             161.00,327.01 146.02,326.07 146.02,326.07
             144.46,326.17 140.61,326.99 142.17,329.46
             143.20,331.09 146.32,330.94 148.00,331.08
             148.00,331.08 161.00,332.04 161.00,332.04
             161.00,332.04 169.00,333.00 169.00,333.00
             169.00,333.00 177.00,333.00 177.00,333.00
             177.00,333.00 186.00,333.97 186.00,333.97
             186.00,333.97 207.00,332.28 207.00,332.28
             211.35,331.77 215.90,332.63 220.00,331.00 Z
           M 216.00,345.00
           C 216.00,345.00 141.00,341.00 141.00,341.00
             141.27,342.54 141.18,343.73 142.57,344.83
             144.42,346.27 154.73,346.14 158.00,346.58
             158.00,346.58 168.00,347.13 168.00,347.13
             179.78,347.89 190.18,348.29 202.00,347.13
             207.37,346.66 211.26,348.07 216.00,345.00 Z
           M 185.00,357.00
           C 185.00,357.00 141.00,355.00 141.00,355.00
             141.90,360.23 144.17,359.93 149.00,360.00
             149.00,360.00 185.00,359.00 185.00,359.00
             185.00,359.00 185.00,357.00 185.00,357.00 Z
           M 144.00,368.00
           C 144.00,368.00 251.00,368.00 251.00,368.00
             249.82,378.17 236.51,386.74 227.00,388.53
             227.00,388.53 216.09,389.60 216.09,389.60
             211.08,391.58 209.66,399.40 199.00,399.96
             194.01,400.22 190.25,399.48 186.30,396.21
             183.33,393.76 181.85,390.33 177.96,389.31
             177.96,389.31 167.00,388.32 167.00,388.32
             157.79,386.21 145.15,377.93 144.00,368.00 Z
           M 207.00,389.00
           C 207.00,389.00 188.00,389.00 188.00,389.00
             192.51,396.98 202.20,396.47 207.00,389.00 Z" />
</svg>
